<svg id="Layer_1" data-name="Layer 1" xmlns="http://www.w3.org/2000/svg" viewBox="0 0 800 400"><defs><style>.cls-1{fill:#fff;}</style></defs><ellipse class="cls-1" cx="110.91" cy="192.17" rx="11.5" ry="16.36" transform="translate(-54.36 44.13) rotate(-18.16)"/><ellipse class="cls-1" cx="225.63" cy="192.12" rx="16.36" ry="11.5" transform="translate(-27.24 346.64) rotate(-71.84)"/><path class="cls-1" d="M166.33,282.74a15.15,15.15,0,0,1,4.15,2.61c-1-1,0,0,.3.26l1,.87c.68.6,1.34,1.23,2,1.87a112.45,112.45,0,0,1,7.69,8.77c4.76,5.87,9.35,12.18,15.33,16.9s13.62,7.66,21.28,4.88a6.88,6.88,0,0,0,4.64-4.35,9.24,9.24,0,0,0,.35-3.84,54.85,54.85,0,0,0-2.32-10c-.6-2.05-1.18-4.1-1.7-6.17q-.39-1.59-.72-3.21c-.1-.53-.2-1.07-.29-1.61l-.12-.73c-.17-1,.12,1.07,0,0a32.63,32.63,0,0,1-.13-6.17c.08-1-.2,1.09,0,.13.05-.26.09-.52.14-.77.09-.43.2-.85.32-1.26.08-.24.18-.48.25-.73.21-.79-.49.9-.07.13.08-.14.15-.3.22-.45l.24-.45c.39-.63.11-.35-.85.85l-2.27.62c-.49,0-.89-.39-1.3-.43l-.18-.12c.35.39.35.37,0-.06.35.45.66.94,1,1.4,1,1.33,2,2.64,3.09,3.9a61,61,0,0,0,5.57,5.68,97.53,97.53,0,0,0,13.28,9.85c3.5,2.2,7,4.49,10.93,5.84a47.49,47.49,0,0,0,10.28,2.15c6.57.74,16,.24,18.56-7.2,1.7-5-1.71-10.3-4.45-14.23-1.66-2.37-3.37-4.68-4.79-7.2-1.25-2.24-2.49-4.48-3.69-6.75-.83-1.57-1.65-3.14-2.38-4.76-.09-.2-.56-1.28-.19-.42s0-.12-.12-.32c-.17-.46-.3-.92-.43-1.39-.22-.79.05.41.06.6a2,2,0,0,1,0-.42c.08-.43-.29,1.51-.1.79a4.12,4.12,0,0,1-.93,1.57c.42-.44-1.15.79-.65.5.15-.08-1.41.51-.73.33s-1.41,0-.77.1a4.34,4.34,0,0,0,.51,0c1.19,0-1.31-.25-.09,0,.46.08.91.18,1.35.28l3.18.74a57.26,57.26,0,0,0,9.21,1.42,42.26,42.26,0,0,0,22.91-5.37c3.33-1.88,6.81-4.86,6.61-9s-4.58-7.38-7.67-9.66c-5.3-3.91-11.56-6.19-17.25-9.42a48.55,48.55,0,0,1-4.16-2.63,9.87,9.87,0,0,0-1-.72c.83.44.54.43.27.21l-.63-.52q-1-.84-1.95-1.77c-.61-.6-1.19-1.22-1.75-1.87-.21-.25-.73-.69-.83-1,.17.54.43.59.16.2s-.42-.57-.62-.87a37.54,37.54,0,0,1-2.91-5.23c-.49-1,.23.62,0,0-.11-.28-.23-.56-.33-.84-.2-.51-.39-1-.56-1.56-.4-1.18-.74-2.38-1.05-3.59L253,222.47l.24.49c1,2,3.71,2.65,5.62,1.84a4.55,4.55,0,0,0,2.6-5.31,180.44,180.44,0,0,1-3-25.74c-.51-8.71-.85-17.44-1.88-26.11-.3-2.53-.64-5.06-1-7.57-.08-.5-.15-1-.25-1.5,0-.27-.1-.55-.16-.82,0,.07.06.73,0,.21s-.06-.74-.07-1.11,0-.47,0-.7.14-.87,0-.23.13-.42.18-.62c.15-.77-.42.65,0,0,.08-.13.59-1.11.23-.44-.27.49-.17.2,0,.06.65-.58-.67.35-.22.13a2.2,2.2,0,0,0,.32-.21c.43-.32.21.24-.36.12a3.59,3.59,0,0,0,.78-.23c.92-.21,1.87-.34,2.79-.55,7.65-1.72,15.3-5.29,20.9-10.86,5.4-5.37,10.5-14.27,8.11-22.11-2.2-7.2-11-10.76-17.79-12.06a42,42,0,0,0-14.5-.22c-4.28.65-8.42,2-12.63,2.88-1,.22-1.94.42-2.92.58-.21,0-1.6.22-.82.13-.59.07-1.19.12-1.78.16a25.51,25.51,0,0,1-2.9,0c-.22,0-1.55-.16-.8,0-.53-.07-1-.18-1.56-.3a31,31,0,0,1-3-.88l-1.27-.47-.5-.2-.51-.22c-1.95-.88-3.84-1.88-5.71-2.92-7.71-4.28-15.34-8.51-23.59-11.71a83.16,83.16,0,0,0-23.58-5.4c-2.07-.16-4.14-.23-6.22-.24v9H168v-9A81.5,81.5,0,0,0,143.72,94,125.22,125.22,0,0,0,120,104.61c-3.65,2.06-7.26,4.24-11.09,6l-.62.27c.61-.26-.09,0-.18.07l-1.26.47a27.54,27.54,0,0,1-3.21,1c-.51.12-1,.23-1.55.3.71-.1-.37,0-.58,0a25,25,0,0,1-3.35,0c-.44,0-.89-.09-1.34-.11-.75,0,.61.1-.14,0l-.67-.1c-1-.17-2.1-.39-3.14-.62-2.11-.47-4.2-1-6.3-1.55a53.25,53.25,0,0,0-13.44-1.91,37.73,37.73,0,0,0-12.5,2.21A26.26,26.26,0,0,0,51,116.16c-6.29,6.28-3.37,16,1.12,22.46,4.77,6.83,11.73,11.3,19.52,14a44.8,44.8,0,0,0,5.46,1.57c.81.18,1.64.3,2.46.47a4.43,4.43,0,0,0,.92.26c-.09,0-.79-.45-.48-.18a3.23,3.23,0,0,0,.44.27c.5.25-.76-.57-.32-.22,0,0,.23.28.27.28s-.49-.79-.3-.39c.08.16.19.31.28.46s.15.36.19.37-.25-.86-.2-.4c0,.15.37,1.43.23.76s0,.49,0,.75,0,.73,0,1.1c0,.22-.18.8,0,0,0,.2-.08.41-.12.62-.12.64-.22,1.29-.33,1.95a265.38,265.38,0,0,0-2.54,27.16c-.23,4.27-.45,8.54-.78,12.8-.17,2.2-.36,4.4-.59,6.59-.11,1-.23,2.07-.36,3.1l-.09.72c-.11.8.08-.56,0,.24-.07.57-.15,1.13-.24,1.69q-.52,3.45-1.21,6.87a4.56,4.56,0,0,0,2.61,5.31c1.91.81,4.65.19,5.62-1.84l.23-.49L74.52,219c-.29,1.15-.61,2.29-1,3.41-.2.58-.4,1.17-.62,1.74l-.27.67c-.38,1,.31-.64-.09.22a36.6,36.6,0,0,1-3,5.36c-.14.21-.29.41-.44.62-.28.41-.16.67.08-.08-.1.31-.53.65-.74.91-.62.72-1.27,1.42-2,2.08s-1.21,1.14-1.84,1.67c-.32.27-1.5.91-.37.31-.38.21-.73.55-1.09.8-5.43,3.84-11.71,6.15-17.44,9.47a39.08,39.08,0,0,0-8.36,6.31c-1.63,1.67-3.09,3.5-3.18,5.93a8.07,8.07,0,0,0,2.3,5.68c2.65,3,6.79,4.67,10.43,6a43.6,43.6,0,0,0,11.93,2.65c5.94.41,11.66-.92,17.4-2.2l1.21-.24c.24-.05,1-.15,0,0s-.22,0,0,0a2.29,2.29,0,0,0,.37,0c.63-.1-1.29-.25-.73-.1s-.73-.33-.75-.34a4.8,4.8,0,0,1-1.25-1.31c.32.53-.46-1.28-.32-.79.23.77-.12-1.29-.09-.75a2.32,2.32,0,0,1,0,.37c0,.22.33-1.49,0-.49-.13.45-.26.89-.42,1.33-.08.23-.19.45-.26.67.47-1.53.09-.23-.09.17-1.78,3.91-3.94,7.66-6,11.41-2.82,5-6.88,9.26-8.9,14.74a9.54,9.54,0,0,0,3.52,11.63c2.8,2,6.6,2.44,9.93,2.51a46.31,46.31,0,0,0,10.94-1.25A30.68,30.68,0,0,0,92,305c9.22-5.28,18.36-11.28,25.32-19.41,1-1.2,2-2.46,3-3.73.38-.51.74-1.05,1.13-1.57-.57.76-.15.15,0,.06a2.66,2.66,0,0,1-1.47.55l-2.27-.62c-1.38-.59-1.15-1.59-.74-.63.07.15.16.31.23.45.56,1.08-.23-.83.13.34A24.42,24.42,0,0,1,118,283c.18.92-.06-.9,0-.27,0,.23,0,.45.07.67,0,.46.06.92.06,1.37,0,.95,0,1.89-.09,2.83,0,.48-.1,1-.15,1.44s-.22.07,0-.32a2.79,2.79,0,0,0-.11.73c-.16,1-.36,2.05-.58,3.07-.43,1.93-.93,3.85-1.47,5.75-.89,3.18-2,6.34-2.6,9.59-.61,3.09-1,7,1.54,9.39s7.66,3.08,11.18,2.7a22.86,22.86,0,0,0,10.35-3.84c6.57-4.41,11.49-10.76,16.4-16.85,2.71-3.37,5.42-6.76,8.42-9.88a49.27,49.27,0,0,1,4.35-4.07c.26-.21.81-.83-.1.07a5.52,5.52,0,0,1,.62-.46c.33-.24.68-.48,1-.71a24.11,24.11,0,0,1,2.52-1.44,4.53,4.53,0,0,0,1.61-6.16,4.61,4.61,0,0,0-6.15-1.62c-4.74,2.35-8.69,6.22-12.18,10.12-3.75,4.21-7.14,8.72-10.76,13-1.76,2.11-3.58,4.18-5.53,6.12-.9.9-1.83,1.76-2.8,2.58l-.71.59c-.76.63.62-.43,0,0s-1,.75-1.55,1.09a24.76,24.76,0,0,1-3,1.65c-.86.42.82-.27.1,0-.26.08-.51.19-.77.28-.55.18-1.11.33-1.68.46l-.68.13c-.75.16,1.13-.09.17,0-.59,0-1.16.07-1.75.06l-.83,0c-1-.05.85.18.11,0-.57-.12-1.14-.22-1.71-.38l-.87-.27-.38-.13c-.76-.24.42.19.47.22-.2-.11-.62-.43.11.13s.45.35.31.22c-.41-.37.72,1,.48.63-.43-.7.39,1.26.14.3-.18-.71,0,.76.07.62a2.19,2.19,0,0,0,0-.57c0-.39.06-.76.07-1.15s-.21,1.27-.06.47c.05-.25.09-.51.14-.77.21-1.07.48-2.13.76-3.18,1.4-5.19,3.14-10.29,4-15.62a33.59,33.59,0,0,0,.44-8.95c-.38-3.27-1.2-7.46-4-9.58s-6.23-.94-8.25,1.43c-.79.91-1.45,1.94-2.17,2.91-.3.41,0,0,.06-.06l-.53.67c-.35.44-.72.87-1.08,1.3a64.47,64.47,0,0,1-8.42,8.1l-.65.52s-.57.44-.2.16-.18.13-.2.15l-.67.5c-.83.62-1.68,1.23-2.54,1.82q-2.4,1.67-4.88,3.21t-5,3c-.58.34-1.16.69-1.75,1l-.54.26c-.87.42.87-.33.22-.09A44.09,44.09,0,0,1,80,299.66c-.6.12-1.21.23-1.82.33l-.93.14c-.5.08.57-.07.53-.07a4.91,4.91,0,0,0-.67.08c-1.24.13-2.48.22-3.73.23q-.9,0-1.8,0l-.87-.06-.36,0c-.78-.06.12,0,.36.06a11.76,11.76,0,0,0-1.46-.28,7.28,7.28,0,0,0-1.53-.48s1.07.53.52.22l-.27-.13-.58-.33c-.65-.35.14,0,.31.27a3.4,3.4,0,0,0-.52-.48c-.61-.56.24.38.21.3a1.89,1.89,0,0,0-.31-.53s.37,1.15.25.58a2,2,0,0,0-.08-.26,2.13,2.13,0,0,1-.07-.27c-.26-.62.06.92,0,.54,0-.09,0-.21,0-.3.09-.55-.33.34-.08.39,0,0,.28-1.06.31-1.16l.25-.75c0-.06.28-.67.08-.21s.13-.27.19-.38.24-.48.37-.72a46.84,46.84,0,0,1,3.34-5.16,104,104,0,0,0,6.51-10.64c1.34-2.45,2.68-4.93,3.81-7.49.79-1.82,1.76-3.87,1.71-5.91a5.73,5.73,0,0,0-4.1-5.55,10.53,10.53,0,0,0-5,.14c-1.56.31-3.09.73-4.64,1.07-1,.22-1.92.41-2.88.58a7.25,7.25,0,0,0-1.57.24s1.22-.14.5-.07l-.36.05-1,.09a52.49,52.49,0,0,1-7.42-.07c.63,0,.8.11.13,0-.33-.05-.66-.11-1-.18-.75-.14-1.49-.31-2.22-.49-1.45-.36-2.89-.79-4.3-1.29a8.83,8.83,0,0,1-2.1-.79c.08,0,.95.41.21.08l-.43-.19c-.37-.16-.73-.34-1.09-.52-.56-.28-1.11-.57-1.64-.89-.27-.16-.53-.33-.79-.5s-1.13-.78-.46-.31-.11-.11-.25-.25-.33-.37-.51-.53.39.52.39.52-.19-.19-.21-.31a.76.76,0,0,0-.13-.23c-.26-.28.43,1.12.22.53s0,.31.05.56c0-.85-.12.67-.09.49.15-.8-.46.93-.15.38.08-.15.33-.43-.13.14s0,.05.11-.1a27.23,27.23,0,0,1,2.61-2.54c.22-.2.46-.38.69-.58.75-.62-.64.44,0,0s1-.75,1.56-1.1a60.93,60.93,0,0,1,6.34-3.61c4.41-2.23,9-4.23,13.05-7A37.05,37.05,0,0,0,79.29,231.7a45.83,45.83,0,0,0,3.91-10.3,4.51,4.51,0,0,0-2.6-5.31c-1.92-.81-4.65-.19-5.62,1.84l-.24.49L83,221.89c3.47-17.28,3.06-34.88,5-52.32q.17-1.57.36-3.15c0-.24.07-.48.1-.73,0,.11-.07.51,0,0s.19-1.32.29-2a57.91,57.91,0,0,0,1-6.67c.11-3.87-1.44-7.81-4.84-9.88a14.44,14.44,0,0,0-4.88-1.51,48.31,48.31,0,0,1-5.27-1.44c-.84-.29-1.68-.6-2.5-.93-.15-.06-.78-.36-.07,0l-.56-.25-1.31-.62a37.25,37.25,0,0,1-4.9-2.92c-.21-.15-1-.72-.38-.26-.37-.28-.72-.58-1.08-.88a27.57,27.57,0,0,1-2-1.91c-.56-.59-1.09-1.2-1.59-1.84.48.61-.06-.08-.23-.33-.31-.43-.6-.87-.88-1.32a25.73,25.73,0,0,1-1.3-2.28c-.21-.42-.42-.85-.6-1.28.31.75-.12-.36-.2-.61a20.51,20.51,0,0,1-.64-2.45c0-.25,0-.8,0,.08,0-.19,0-.37,0-.56,0-.43,0-.85,0-1.28,0-.84,0,0,0,.13,0-.18.07-.35.11-.53s.09-.34.14-.52c.18-.77,0,.27-.13.21l.43-.77c.05-.09.35-.55,0,0s.14-.14.26-.26.45-.46.69-.68.35-.28.51-.43c0,0-.65.46-.23.19.7-.45,1.37-.91,2.1-1.31s1.38-.68,2.07-1c-.69.34-.17.07.22-.08l1.25-.46a32.71,32.71,0,0,1,5.27-1.3c.09,0,1.06-.15.59-.09l.35,0,1.44-.11a33.26,33.26,0,0,1,3.6,0c.48,0,1,0,1.43.09.21,0,1.68.17.91.07,1.06.14,2.12.35,3.17.57,4.07.85,8.06,2.09,12.16,2.84a31.73,31.73,0,0,0,13.75,0,52.08,52.08,0,0,0,11.89-5c3.71-2,7.33-4.21,11.09-6.14,1.92-1,3.84-1.92,5.79-2.82.91-.42,1.81-.82,2.73-1.22l.29-.12.29-.12,1.65-.67a85.4,85.4,0,0,1,11-3.53c1.91-.46,3.85-.86,5.79-1.17l1.26-.19c-.81.13.48-.05.71-.08,1-.12,2-.21,3-.29,2-.15,4-.21,6-.22a4.5,4.5,0,0,0,0-9h-.28a4.5,4.5,0,1,0,0,9c2,0,4,.07,6,.22.93.07,1.87.16,2.8.26l.85.11s.74.1.25,0l.24,0,.84.13A77,77,0,0,1,190,102.82c1.86.6,3.71,1.26,5.53,2l1.44.58.62.26c-.09,0-.52-.22,0,0,1,.43,2,.86,2.93,1.31,3.92,1.8,7.75,3.78,11.49,5.91,7.48,4.26,15.34,9.06,24.25,8.9a57.26,57.26,0,0,0,12.85-2.15c2-.51,4.05-1,6.1-1.46,1-.21,2-.38,2.94-.53.76-.12-.62,0,.18,0l.71-.07q1-.09,1.92-.12,1.56,0,3.12,0l1.43.11.72.08c-.65-.08.35.05.47.07a32.86,32.86,0,0,1,5.26,1.3l1.1.4c.15.06,1.1.46.58.23l.11.05.65.31q.56.27,1.11.57c.67.37,1.31.78,1.95,1.21.19.12.62.53-.09-.09l.38.32c.28.26.57.51.83.79,0,0,.41.38.42.47s-.47-.78-.25-.3c0,.07.54.88.51.89s-.29-.94-.18-.38c0,.18.11.35.16.52s.06.35.11.52c.16.51,0-.81,0,0,0,.37,0,.73,0,1.1s0,.49-.05.74c0-.06.15-.78,0-.26a21.56,21.56,0,0,1-.67,2.63,6.76,6.76,0,0,0-.26.77c.19-.51-.13.27-.18.39s-.17.36-.26.55c-.42.84-.89,1.66-1.39,2.46-.25.4-.51.78-.77,1.16-.11.15-.73,1-.46.64s-.08.1-.12.15-.31.38-.48.57-.57.66-.87,1c-.59.62-1.21,1.21-1.85,1.78l-1.07.89c-.39.32.06,0,.12-.09-.28.19-.54.39-.82.59a38.3,38.3,0,0,1-4.74,2.8l-1.11.53-.76.34c.08,0,.61-.25.13-.05-.89.36-1.79.7-2.7,1a47.53,47.53,0,0,1-5.26,1.44,14.49,14.49,0,0,0-4.89,1.51,9.33,9.33,0,0,0-3.62,4c-1.91,4.17-.91,8.21-.25,12.55.32,2.11.49,3.45.75,5.87.24,2.22.44,4.45.61,6.67.33,4.21.55,8.42.78,12.63.48,8.83,1,17.64,2.38,26.39q.51,3.33,1.17,6.63l8.23-3.47-.23-.49c-1-2-3.72-2.65-5.62-1.84a4.51,4.51,0,0,0-2.61,5.31A40.41,40.41,0,0,0,262,239.49a47.69,47.69,0,0,0,13.1,9.22c4.36,2.23,8.9,4.17,13,6.93.46.31.9.64,1.35,1,.61.44-.77-.63,0,0l.78.66a37.51,37.51,0,0,1,2.69,2.66c.58.62-.53-.79-.19-.24s-.29-1.15-.16-.38c0,.18,0-1.33-.08-.49,0-.51.28-1.21,0-.41.14-.39.52-1.08.09-.37s.66-.65.17-.22c-.16.15-.29.32-.45.46l-.33.3c-.43.43.23-.24.35-.25-.34,0-1.2.82-1.52,1-.62.37-1.25.71-1.9,1-.28.14-.55.27-.83.39l-.57.25c-.46.22.35-.14.35-.14a10.12,10.12,0,0,1-2.25.84c-1.41.49-2.85.92-4.3,1.28-.68.17-1.37.32-2.06.45l-1,.18-.4.07c-.58.11,1.07-.11.27,0a38.49,38.49,0,0,1-7.28,0l-.84-.08c-.79-.1-.48-.11.15,0-.56-.11-1.13-.16-1.68-.26-1-.17-1.92-.37-2.87-.58-3-.66-6.58-2.11-9.6-1.17a5.7,5.7,0,0,0-4,5.62,15.83,15.83,0,0,0,1.75,5.91,106.4,106.4,0,0,0,10.53,18.4,43.28,43.28,0,0,1,3.18,5c.13.24.25.48.37.72,0,0,.29.66.1.2s.05.15.07.21c.09.25.18.5.26.75s.11.38.16.58,0,.93.11.28-.12.1-.08.31c-.24-1.11.22-1,.07-.64a.9.9,0,0,0-.07.27c0,.8-.26,0,.16-.32a2,2,0,0,0-.31.53c-.12.3.44-.56.45-.56s-.2.24-.29.32a3.19,3.19,0,0,0-.47.42c.19-.27,1-.62.32-.27l-.59.33c-.11.06-.24.1-.35.17-.41.24,1-.35.51-.22s-.94.32-1.43.44l-.78.16-.34.06c-.76.15.14-.07.38,0-1.1-.13-2.4.19-3.53.17s-2.49-.11-3.73-.25a4.52,4.52,0,0,0-.53-.06c-.05,0,1,.15.52.07l-.93-.14q-1-.15-2-.36c-1.14-.23-2.27-.5-3.39-.83s-1.95-.77-2.94-1c.3.08,1.05.48.4.17l-.53-.26c-.66-.34-1.29-.72-1.93-1.09-1.69-1-3.37-2-5-3s-3.4-2.18-5.05-3.34c-.74-.51-1.47-1-2.2-1.58l-.66-.5s-.57-.44-.21-.15-.27-.22-.36-.29l-.65-.52a63.05,63.05,0,0,1-8.53-8.29c-.32-.38-.63-.76-.94-1.15l-.4-.5c.12.15.45.6-.07-.11a33.82,33.82,0,0,0-2.15-2.89c-2.21-2.41-6.19-3.42-8.71-.83-2.3,2.35-3,6.12-3.39,9.26-.63,5.76.83,11.72,2.36,17.23.69,2.49,1.45,4.95,2.12,7.45.27,1,.52,2,.72,3,0,.22.07.45.11.67.17.87-.06-1,0-.38,0,.38.07.75.07,1.13a4.19,4.19,0,0,0,0,.5c0,.33.29-1.36.07-.62-.07.23-.27.74.09-.1.46-1.08-.4.38.32-.53.52-.67.35-.44.22-.3s-.63.33.68-.51l-.27.16c1.36-.71.5-.23.1-.09s-.67.21-1,.3c-.57.16-1.14.24-1.71.37s.62-.08.59-.09a3.39,3.39,0,0,0-.47.05c-.32,0-.63,0-1,0-.51,0-1,0-1.52-.06-1-.07.9.19.17,0-.3-.07-.61-.12-.91-.18-.52-.13-1-.28-1.55-.45l-.66-.24c-.72-.24.44.17.42.19a1.89,1.89,0,0,1-.44-.2,25.7,25.7,0,0,1-3.07-1.73c-.46-.31-.9-.63-1.35-1s.76.63,0,0l-.81-.67c-1-.86-2-1.76-2.9-2.7-7.73-7.76-13.39-17.5-21.78-24.62a32.6,32.6,0,0,0-6.48-4.46c-2.11-1-5-.63-6.16,1.62-1.07,2-.64,5,1.62,6.16Z"/><path class="cls-1" d="M330.33,228.39a4.69,4.69,0,0,1-3.57-1.31,5.13,5.13,0,0,1-1.24-3.64v-40.5H310.9a4.1,4.1,0,0,1-3-1.09,4,4,0,0,1-1.09-3,3.86,3.86,0,0,1,1.09-3,4.28,4.28,0,0,1,3-1h38.85a4.28,4.28,0,0,1,3,1,3.86,3.86,0,0,1,1.09,3,4,4,0,0,1-1.09,3,4.1,4.1,0,0,1-3,1.09H335.13v40.5a5.21,5.21,0,0,1-1.21,3.64A4.65,4.65,0,0,1,330.33,228.39Z"/><path class="cls-1" d="M367.22,228.39a4.57,4.57,0,0,1-3.45-1.24,4.9,4.9,0,0,1-1.2-3.56V179a4.79,4.79,0,0,1,1.2-3.53,4.67,4.67,0,0,1,3.45-1.2,4.8,4.8,0,0,1,3.49,1.2A4.69,4.69,0,0,1,372,179v19.42H370.9a12.18,12.18,0,0,1,5.14-6,15.18,15.18,0,0,1,7.91-2.07,14.35,14.35,0,0,1,7.27,1.65,10.2,10.2,0,0,1,4.28,5,21.64,21.64,0,0,1,1.42,8.44v18.15a4.9,4.9,0,0,1-1.2,3.56,4.57,4.57,0,0,1-3.45,1.24,4.67,4.67,0,0,1-3.48-1.24,4.79,4.79,0,0,1-1.24-3.56v-17.7q0-4.27-1.61-6.23a6.11,6.11,0,0,0-5-1.95,8.59,8.59,0,0,0-6.56,2.59,9.58,9.58,0,0,0-2.44,6.86v16.43Q372,228.39,367.22,228.39Z"/><path class="cls-1" d="M424.52,228.54a23.07,23.07,0,0,1-10.72-2.33,16.56,16.56,0,0,1-6.94-6.6,22.2,22.2,0,0,1-.07-20.1,17.38,17.38,0,0,1,6.52-6.71,19.74,19.74,0,0,1,16.5-1.16,14.84,14.84,0,0,1,5.33,3.67,16.09,16.09,0,0,1,3.37,5.82,23.56,23.56,0,0,1,1.16,7.68,2.46,2.46,0,0,1-.93,2.07,4.39,4.39,0,0,1-2.67.71H412v-5.4h21.07l-1.2,1.12a14.37,14.37,0,0,0-1-5.77,7.79,7.79,0,0,0-2.92-3.56,8.59,8.59,0,0,0-4.77-1.24,9.55,9.55,0,0,0-5.36,1.46,9.16,9.16,0,0,0-3.37,4.13,15.62,15.62,0,0,0-1.17,6.33v.53q0,6.15,2.89,9.19t8.51,3a22.92,22.92,0,0,0,4.39-.48,16.17,16.17,0,0,0,4.61-1.69,4.88,4.88,0,0,1,2.78-.79,2.94,2.94,0,0,1,1.91.86,3.29,3.29,0,0,1,.86,1.84,3.68,3.68,0,0,1-.41,2.21,4.87,4.87,0,0,1-1.91,1.95,19.33,19.33,0,0,1-6,2.44A28.08,28.08,0,0,1,424.52,228.54Z"/><path class="cls-1" d="M468.85,228.39a4.66,4.66,0,0,1-2.89-.83,3.31,3.31,0,0,1-1.31-2.21,5.57,5.57,0,0,1,.52-3.11L485,178.36a7.22,7.22,0,0,1,2.36-3.11,5.62,5.62,0,0,1,3.19-.94,5.45,5.45,0,0,1,3.11.94,7.16,7.16,0,0,1,2.37,3.11l19.87,43.88a5.36,5.36,0,0,1,.6,3.15,3.26,3.26,0,0,1-1.27,2.21,4.49,4.49,0,0,1-2.78.79,4.82,4.82,0,0,1-3.26-1,8.54,8.54,0,0,1-2.06-3.12l-4.88-11.32,4,2.62H474.62l4.05-2.62-4.8,11.32a9.78,9.78,0,0,1-2,3.15A4.25,4.25,0,0,1,468.85,228.39Zm21.52-43-10.5,25-1.95-2.4H503l-1.87,2.4-10.58-25Z"/><path class="cls-1" d="M536.05,228.54a37.16,37.16,0,0,1-6.83-.68,20.19,20.19,0,0,1-6.45-2.32,4.41,4.41,0,0,1-1.69-1.76,3.68,3.68,0,0,1-.37-2,3.14,3.14,0,0,1,.75-1.76,2.91,2.91,0,0,1,1.65-1,3.3,3.3,0,0,1,2.21.38,26.18,26.18,0,0,0,5.63,2,24.93,24.93,0,0,0,5.17.56,9.33,9.33,0,0,0,5.36-1.24,3.8,3.8,0,0,0,1.77-3.26,3.2,3.2,0,0,0-1.17-2.66,7.86,7.86,0,0,0-3.48-1.39L531.1,212a13,13,0,0,1-7.09-3.41,8.91,8.91,0,0,1-2.44-6.49,10,10,0,0,1,2-6.22,12.64,12.64,0,0,1,5.51-4.05,21.48,21.48,0,0,1,8.1-1.43,25.56,25.56,0,0,1,6.19.72,22.53,22.53,0,0,1,5.59,2.21,3.15,3.15,0,0,1,1.72,3.56,4,4,0,0,1-.9,1.8,2.84,2.84,0,0,1-1.69,1,3.8,3.8,0,0,1-2.28-.42,20.32,20.32,0,0,0-4.47-1.72,17.06,17.06,0,0,0-4.08-.53,9.32,9.32,0,0,0-5.44,1.28,4,4,0,0,0-1.76,3.37,3.57,3.57,0,0,0,1.05,2.63,5.85,5.85,0,0,0,3.22,1.42l7.5,1.43a14.23,14.23,0,0,1,7.39,3.3,8.52,8.52,0,0,1,2.51,6.45,10,10,0,0,1-4.27,8.59Q543.17,228.54,536.05,228.54Z"/><path class="cls-1" d="M572.65,228.54a37.16,37.16,0,0,1-6.83-.68,20.19,20.19,0,0,1-6.45-2.32,4.41,4.41,0,0,1-1.69-1.76,3.68,3.68,0,0,1-.37-2,3.14,3.14,0,0,1,.75-1.76,2.91,2.91,0,0,1,1.65-1,3.3,3.3,0,0,1,2.21.38,26,26,0,0,0,5.63,2,24.86,24.86,0,0,0,5.17.56,9.33,9.33,0,0,0,5.36-1.24,3.8,3.8,0,0,0,1.77-3.26,3.2,3.2,0,0,0-1.17-2.66,7.86,7.86,0,0,0-3.48-1.39L567.7,212a13,13,0,0,1-7.09-3.41,8.91,8.91,0,0,1-2.44-6.49,10,10,0,0,1,2-6.22,12.64,12.64,0,0,1,5.51-4.05,21.48,21.48,0,0,1,8.1-1.43,25.56,25.56,0,0,1,6.19.72,22.53,22.53,0,0,1,5.59,2.21,3.15,3.15,0,0,1,1.72,3.56,4,4,0,0,1-.9,1.8,2.84,2.84,0,0,1-1.69,1,3.8,3.8,0,0,1-2.28-.42,20.32,20.32,0,0,0-4.47-1.72,17.06,17.06,0,0,0-4.08-.53,9.32,9.32,0,0,0-5.44,1.28,4,4,0,0,0-1.76,3.37,3.57,3.57,0,0,0,1.05,2.63,5.85,5.85,0,0,0,3.22,1.42l7.5,1.43a14.23,14.23,0,0,1,7.39,3.3,8.52,8.52,0,0,1,2.51,6.45,10,10,0,0,1-4.27,8.59Q579.78,228.54,572.65,228.54Z"/><path class="cls-1" d="M600.47,183.61a5.9,5.9,0,0,1-4.09-1.31,5.3,5.3,0,0,1,0-7.31,7.24,7.24,0,0,1,8.22,0,5.41,5.41,0,0,1,0,7.31A5.89,5.89,0,0,1,600.47,183.61Zm0,44.7A4.37,4.37,0,0,1,597,227a5.45,5.45,0,0,1-1.2-3.75V195.69a5.44,5.44,0,0,1,1.2-3.79,4.46,4.46,0,0,1,3.45-1.31A4.59,4.59,0,0,1,604,191.9a5.35,5.35,0,0,1,1.24,3.79v27.52A5.5,5.5,0,0,1,604,227,4.48,4.48,0,0,1,600.47,228.31Z"/><path class="cls-1" d="M628.37,228.54a37.16,37.16,0,0,1-6.83-.68,20.19,20.19,0,0,1-6.45-2.32,4.32,4.32,0,0,1-1.68-1.76,3.69,3.69,0,0,1-.38-2,3.29,3.29,0,0,1,.75-1.76,3,3,0,0,1,1.65-1,3.3,3.3,0,0,1,2.21.38,26.18,26.18,0,0,0,5.63,2,24.93,24.93,0,0,0,5.17.56,9.38,9.38,0,0,0,5.37-1.24,3.81,3.81,0,0,0,1.76-3.26,3.23,3.23,0,0,0-1.16-2.66,8,8,0,0,0-3.49-1.39l-7.5-1.43a13,13,0,0,1-7.09-3.41,9,9,0,0,1-2.44-6.49,10,10,0,0,1,2-6.22,12.7,12.7,0,0,1,5.51-4.05,21.48,21.48,0,0,1,8.1-1.43,25.5,25.5,0,0,1,6.19.72,22.38,22.38,0,0,1,5.59,2.21,3.12,3.12,0,0,1,1.72,3.56,4,4,0,0,1-.9,1.8,2.85,2.85,0,0,1-1.68,1,3.82,3.82,0,0,1-2.29-.42,20.45,20.45,0,0,0-4.46-1.72,17.21,17.21,0,0,0-4.09-.53,9.35,9.35,0,0,0-5.44,1.28,4,4,0,0,0-1.76,3.37,3.57,3.57,0,0,0,1,2.63,5.85,5.85,0,0,0,3.22,1.42l7.5,1.43a14.19,14.19,0,0,1,7.39,3.3,8.48,8.48,0,0,1,2.51,6.45,10,10,0,0,1-4.27,8.59Q635.49,228.54,628.37,228.54Z"/><path class="cls-1" d="M668,228.54a18,18,0,0,1-8.14-1.65,10.49,10.49,0,0,1-4.83-4.84,17.75,17.75,0,0,1-1.58-7.91v-16h-3.9a3.83,3.83,0,0,1-2.77-.93,4,4,0,0,1,0-5.22,3.91,3.91,0,0,1,2.77-.9h3.9v-6.82a4.69,4.69,0,0,1,1.24-3.53,4.78,4.78,0,0,1,3.48-1.2,4.67,4.67,0,0,1,3.45,1.2,4.79,4.79,0,0,1,1.2,3.53v6.82h8a3.93,3.93,0,0,1,2.77.9,4,4,0,0,1,0,5.22,3.85,3.85,0,0,1-2.77.93h-8v15.45a8,8,0,0,0,1.58,5.4q1.57,1.8,5.1,1.8a10.09,10.09,0,0,0,2.25-.22,13.73,13.73,0,0,1,1.73-.3,1.79,1.79,0,0,1,1.5.56,4,4,0,0,1,.59,2.59,6.9,6.9,0,0,1-.48,2.66,2.84,2.84,0,0,1-1.77,1.61,21.3,21.3,0,0,1-2.54.57A17.74,17.74,0,0,1,668,228.54Z"/><path class="cls-1" d="M697.67,228.54a23.11,23.11,0,0,1-10.73-2.33,16.48,16.48,0,0,1-6.93-6.6,20,20,0,0,1-2.44-10.12,20.37,20.37,0,0,1,2.36-10,17.4,17.4,0,0,1,6.53-6.71,19.74,19.74,0,0,1,16.5-1.16,14.71,14.71,0,0,1,5.32,3.67,16.11,16.11,0,0,1,3.38,5.82,23.83,23.83,0,0,1,1.16,7.68,2.44,2.44,0,0,1-.94,2.07,4.34,4.34,0,0,1-2.66.71H685.14v-5.4h21.08l-1.2,1.12a14.55,14.55,0,0,0-1-5.77,7.81,7.81,0,0,0-2.93-3.56,8.53,8.53,0,0,0-4.76-1.24A9.53,9.53,0,0,0,691,198.2a9.25,9.25,0,0,0-3.38,4.13,15.79,15.79,0,0,0-1.16,6.33v.53q0,6.15,2.89,9.19t8.51,3a23,23,0,0,0,4.39-.48,16.17,16.17,0,0,0,4.61-1.69,4.86,4.86,0,0,1,2.77-.79,3,3,0,0,1,1.92.86,3.29,3.29,0,0,1,.86,1.84,3.75,3.75,0,0,1-.41,2.21,5,5,0,0,1-1.92,1.95,19.37,19.37,0,0,1-6,2.44A28.08,28.08,0,0,1,697.67,228.54Z"/><path class="cls-1" d="M725,228.39a4.33,4.33,0,0,1-4.8-4.8V195.24a4.79,4.79,0,0,1,1.2-3.53,5.35,5.35,0,0,1,6.75,0,4.79,4.79,0,0,1,1.2,3.53V200h-.75a11.45,11.45,0,0,1,4.13-6.82,15.56,15.56,0,0,1,8.17-2.78,3,3,0,0,1,2.52.79,4.48,4.48,0,0,1,1.08,2.89,3.94,3.94,0,0,1-.86,3,4.52,4.52,0,0,1-3,1.38l-1.65.15q-4.57.45-6.9,2.82a9,9,0,0,0-2.32,6.63v15.53a4.9,4.9,0,0,1-1.2,3.56A4.69,4.69,0,0,1,725,228.39Z"/><path class="cls-1" d="M761.19,241.89a4.14,4.14,0,0,1-2.7-.86,3.41,3.41,0,0,1-1.23-2.29,5.62,5.62,0,0,1,.48-3l5.1-11.33v3.9l-13.65-31.57a5.74,5.74,0,0,1-.45-3.08,3.4,3.4,0,0,1,1.39-2.28,5.23,5.23,0,0,1,3.19-.87,4.53,4.53,0,0,1,2.77.79,6.59,6.59,0,0,1,1.88,3l10.12,25.28h-2.25l10.35-25.35a6.23,6.23,0,0,1,1.95-2.89,5.17,5.17,0,0,1,3-.79,3.81,3.81,0,0,1,2.63.87,3.66,3.66,0,0,1,1.2,2.25,5.27,5.27,0,0,1-.53,3l-18.22,41.63a6.78,6.78,0,0,1-2.1,2.85A5.2,5.2,0,0,1,761.19,241.89Z"/></svg>